<?xml version="1.0" encoding="UTF-8" standalone="no"?>
<!DOCTYPE svg PUBLIC "-//W3C//DTD SVG 1.1//EN" "http://www.w3.org/Graphics/SVG/1.1/DTD/svg11.dtd">
<svg width="100%" height="100%" viewBox="0 0 30 25" version="1.1" xmlns="http://www.w3.org/2000/svg" xmlns:xlink="http://www.w3.org/1999/xlink" xml:space="preserve" style="fill-rule:evenodd;clip-rule:evenodd;stroke-linejoin:round;stroke-miterlimit:1.41421;">
    <g transform="matrix(1,0,0,1,-1.90153,-0.414375)">
        <g transform="matrix(0.410721,0,0,0.410721,-3.6432,-7.84934)">
            <path d="M82.5,20.12L82.5,26.63L17.5,26.63L17.5,20.12L13.5,20.12L13.5,67.22C13.5,68.317 14.403,69.22 15.5,69.22L84.5,69.22C85.597,69.22 86.5,68.317 86.5,67.22L86.5,20.12L82.5,20.12ZM27.68,56.61L27.68,30.61L33.26,30.61L33.26,56.61L27.68,56.61ZM37.26,30.61L42.84,30.61L42.84,56.61L37.26,56.61L37.26,30.61ZM46.84,30.61L52.42,30.61L52.42,56.61L46.84,56.61L46.84,30.61ZM56.42,30.61L62,30.61L62,56.61L56.42,56.61L56.42,30.61ZM66,30.61L71.58,30.61L71.58,56.61L66,56.61L66,30.61ZM75.58,30.61L82.5,30.61L82.5,56.61L75.58,56.61L75.58,30.61ZM23.69,30.61L23.69,56.61L17.5,56.61L17.5,30.61L23.69,30.61ZM17.5,65.22L17.5,60.61L82.5,60.61L82.5,65.22L17.5,65.22Z" style="fill:rgb(218,0,88);fill-rule:nonzero;"/>
        </g>
        <g transform="matrix(0.410721,0,0,0.410721,-3.6432,-7.84934)">
            <path d="M84.5,71L15.5,71C14.403,71 13.5,71.903 13.5,73L13.5,80.85L17.5,80.85L17.5,75L82.5,75L82.5,80.85L86.5,80.85L86.5,73C86.5,71.903 85.597,71 84.5,71Z" style="fill:rgb(218,0,88);fill-rule:nonzero;"/>
        </g>
    </g>
</svg>
