<?xml version="1.0" encoding="UTF-8" standalone="no"?>
<!DOCTYPE svg PUBLIC "-//W3C//DTD SVG 1.1//EN" "http://www.w3.org/Graphics/SVG/1.1/DTD/svg11.dtd">
<svg width="100%" height="100%" viewBox="0 0 42 37" version="1.1" xmlns="http://www.w3.org/2000/svg" xmlns:xlink="http://www.w3.org/1999/xlink" xml:space="preserve" style="fill-rule:evenodd;clip-rule:evenodd;stroke-linejoin:round;stroke-miterlimit:1.41421;">
    <g transform="matrix(1,0,0,1,-0.0957031,-0.427083)">
        <g transform="matrix(0.416572,0,0,0.416572,0.0957031,0.427083)">
            <circle cx="30.124" cy="30.963" r="3.471" style="fill:rgb(192,31,50);"/>
        </g>
        <g transform="matrix(0.416572,0,0,0.416572,0.0957031,0.427083)">
            <path d="M68.411,48.263C70.277,47.825 71.434,45.957 70.997,44.089C70.561,42.225 68.692,41.066 66.827,41.502C64.961,41.94 63.801,43.809 64.238,45.673C64.676,47.54 66.543,48.7 68.411,48.263Z" style="fill:rgb(192,31,50);fill-rule:nonzero;"/>
        </g>
        <g transform="matrix(0.416572,0,0,0.416572,0.0957031,0.427083)">
            <path d="M90.277,73.61C85.687,73.61 80.186,68.433 74.363,62.952C73.727,62.354 73.083,61.749 72.433,61.141L70.453,52.687C69.984,50.68 67.977,49.438 65.975,49.907C64.355,50.286 63.25,51.668 63.124,53.242C57.318,49.003 50.789,45.833 43.055,45.833L43.055,12.5L20.833,0L0,12.5L0,87.5L4.167,87.5L4.167,81.944L18.057,81.944L18.057,87.5L22.224,87.5L22.224,81.944L38.891,81.944L38.891,87.5L43.058,87.5L43.058,56.944L43.058,54.167C52.874,54.167 60.896,61.718 68.654,69.02C75.716,75.667 82.384,81.945 90.279,81.945L91.669,81.945L91.669,87.5L95.835,87.5L95.835,81.944L100,81.944L100,73.61L90.277,73.61ZM18.056,79.167L4.167,79.167L4.167,73.61L18.057,73.61L18.057,79.167L18.056,79.167ZM18.056,70.833L4.167,70.833L4.167,65.277L18.057,65.277L18.057,70.833L18.056,70.833ZM18.056,62.5L4.167,62.5L4.167,56.944L18.057,56.944L18.057,62.5L18.056,62.5ZM38.889,45.833L34.613,45.833L32.958,38.768C32.489,36.762 30.484,35.519 28.48,35.99C26.475,36.459 25.23,38.464 25.7,40.469L26.956,45.833L4.167,45.833L4.167,15.277L38.89,15.277L38.89,45.833L38.889,45.833Z" style="fill:rgb(192,31,50);fill-rule:nonzero;"/>
        </g>
    </g>
</svg>
