<?xml version="1.0" encoding="UTF-8" standalone="no"?>
<!DOCTYPE svg PUBLIC "-//W3C//DTD SVG 1.1//EN" "http://www.w3.org/Graphics/SVG/1.1/DTD/svg11.dtd">
<svg width="100%" height="100%" viewBox="0 0 21 29" version="1.1" xmlns="http://www.w3.org/2000/svg" xmlns:xlink="http://www.w3.org/1999/xlink" xml:space="preserve" style="fill-rule:evenodd;clip-rule:evenodd;stroke-linejoin:round;stroke-miterlimit:1.41421;">
    <g transform="matrix(1,0,0,1,-0.509634,-3.47589)">
        <path d="M4.008,8.777L4.008,6.744C4.008,2.85 18.01,1.946 18.01,6.744L18.01,8.777L17.218,8.777L17.218,12.277C17.218,12.39 17.333,12.503 17.389,12.503C18.179,13.124 19.027,13.802 20.042,14.591L20.042,14.648C20.944,15.382 21.509,15.891 21.509,17.583L21.509,29.157C21.509,30.794 20.324,32.432 18.291,32.432L3.726,32.432C1.694,32.432 0.51,30.738 0.51,29.157L0.51,17.583C0.51,15.891 1.073,15.382 1.976,14.591C2.993,13.746 3.839,13.124 4.63,12.503C4.687,12.503 4.8,12.39 4.8,12.277L4.8,8.777L4.008,8.777ZM18.291,30.4C19.14,30.4 19.478,29.665 19.478,29.157L19.478,17.583C19.478,16.793 19.478,16.737 18.743,16.173C17.727,15.382 16.938,14.704 16.146,14.14C15.526,13.689 15.188,13.011 15.188,12.277L15.188,8.777L6.832,8.777L6.832,12.277C6.832,13.011 6.494,13.689 5.815,14.14C5.082,14.704 4.233,15.382 3.275,16.173L3.218,16.173C2.541,16.737 2.541,16.793 2.541,17.583L2.541,29.157C2.541,29.665 2.824,30.4 3.726,30.4L18.291,30.4Z" style="fill:rgb(18,171,192);"/>
        <g transform="matrix(0.59062,0,0,0.59062,-90.9059,-15.8231)">
            <rect x="162.329" y="60.96" width="21.125" height="13.956" style="fill:rgb(255,127,180);"/>
        </g>
    </g>
</svg>
