<?xml version="1.0" encoding="UTF-8" standalone="no"?>
<!DOCTYPE svg PUBLIC "-//W3C//DTD SVG 1.1//EN" "http://www.w3.org/Graphics/SVG/1.1/DTD/svg11.dtd">
<svg width="100%" height="100%" viewBox="0 0 42 34" version="1.1" xmlns="http://www.w3.org/2000/svg" xmlns:xlink="http://www.w3.org/1999/xlink" xml:space="preserve" style="fill-rule:evenodd;clip-rule:evenodd;stroke-linejoin:round;stroke-miterlimit:1.41421;">
    <g transform="matrix(0.477385,0,0,0.477385,-2.61712,-459.175)">
        <path d="M71,975.362C65.477,975.362 61,979.839 61,985.362C61,990.885 65.477,995.362 71,995.362C76.523,995.362 81,990.885 81,985.362C81,979.839 76.523,975.362 71,975.362ZM45.938,983.362C41.519,983.362 37.938,986.944 37.938,991.362C37.938,995.78 41.519,999.362 45.938,999.362C50.356,999.362 53.938,995.78 53.938,991.362C53.938,986.944 50.356,983.362 45.938,983.362ZM23,992.362C19.686,992.362 17,995.048 17,998.362C17,1001.68 19.686,1004.36 23,1004.36C26.314,1004.36 29,1001.68 29,998.362C29,995.048 26.314,992.362 23,992.362ZM71,1003.36C65.662,1003.36 60.823,1004.44 57.125,1006.27C58.281,1006.71 59.375,1007.22 60.375,1007.8C64.195,1010 66.938,1013.37 66.938,1017.36L66.938,1029.36L92,1029.36L92,1015.36C92,1008.47 82.634,1003.36 71,1003.36ZM45.938,1006.36C39.948,1006.36 34.658,1007.94 31.188,1010.43C32.386,1010.77 33.51,1011.19 34.531,1011.71C37.641,1013.29 40,1015.96 40,1019.33L40,1029.36L64.938,1029.36L64.938,1017.36C64.938,1011.21 56.463,1006.36 45.938,1006.36ZM23,1011.36C14.69,1011.36 8,1014.44 8,1019.36L8,1029.36L38,1029.36L38,1019.36C38,1014.44 31.31,1011.36 23,1011.36Z" style="fill:rgb(9,117,120);fill-rule:nonzero;"/>
    </g>
</svg>
