<?xml version="1.0" encoding="UTF-8" standalone="no"?>
<!DOCTYPE svg PUBLIC "-//W3C//DTD SVG 1.1//EN" "http://www.w3.org/Graphics/SVG/1.1/DTD/svg11.dtd">
<svg width="100%" height="100%" viewBox="0 0 42 41" version="1.1" xmlns="http://www.w3.org/2000/svg" xmlns:xlink="http://www.w3.org/1999/xlink" xml:space="preserve" style="fill-rule:evenodd;clip-rule:evenodd;stroke-linejoin:round;stroke-miterlimit:1.41421;">
    <g transform="matrix(0.24,0,0,0.24,-314.061,-574.507)">
        <g transform="matrix(4.16667,0,0,4.16667,0,0)">
            <path d="M339.734,597.951L337.119,595.153C336.779,594.826 336.309,594.826 335.969,595.153C335.629,595.48 335.629,595.977 335.969,596.304L338.584,599.089L337.433,600.239L334.818,597.455C334.504,597.127 334.007,597.127 333.667,597.455C333.328,597.781 333.328,598.266 333.667,598.605L336.309,601.391L335.158,602.371L332.517,599.742C332.203,599.416 331.706,599.416 331.366,599.586C331.052,599.912 331.052,600.41 331.366,600.736L334.007,603.521L332.857,604.659L330.215,601.874C329.902,601.547 329.405,601.547 329.091,601.874C328.751,602.201 328.751,602.697 329.091,603.024L331.706,605.81L329.562,607.941L323.495,606.307L323.338,606.137L322.03,600.069L335.812,586.798L343.343,594.5L339.734,597.951ZM355.164,586.641L344.023,575.16C343.683,574.664 343.343,574.507 342.847,574.507C342.376,574.507 341.879,574.664 341.539,574.99L341.225,575.317C340.571,575.984 340.388,577.122 341.225,577.945L344.494,581.385L340.571,585.32L336.125,580.73C335.472,580.077 334.321,580.077 333.511,580.73L333.17,581.228C332.36,581.881 332.36,583.032 333.17,583.686L333.667,584.34L319.075,598.436C318.735,598.762 318.578,599.416 318.578,599.912L320.042,606.307L314.786,611.38C313.819,612.203 313.819,613.682 314.786,614.662C315.623,615.643 317.271,615.643 318.238,614.832L323.495,609.588L329.562,611.223C330.059,611.38 330.712,611.223 331.209,610.896L345.645,596.631L346.298,597.284C346.979,597.951 348.103,597.951 348.94,597.284L349.253,596.957C349.593,596.631 349.75,596.134 349.75,595.65C349.75,595.153 349.593,594.67 349.253,594.342L344.991,589.91L348.94,585.975L352.392,589.426C352.706,589.753 353.202,589.91 353.699,589.91C354.196,589.91 354.51,589.753 355.007,589.426L355.164,589.086C356,588.432 356,587.295 355.164,586.641Z" style="fill:rgb(135,38,108);fill-rule:nonzero;"/>
        </g>
    </g>
</svg>
