<?xml version="1.0" encoding="UTF-8" standalone="no"?>
<!DOCTYPE svg PUBLIC "-//W3C//DTD SVG 1.1//EN" "http://www.w3.org/Graphics/SVG/1.1/DTD/svg11.dtd">
<svg width="100%" height="100%" viewBox="0 0 35 26" version="1.1" xmlns="http://www.w3.org/2000/svg" xmlns:xlink="http://www.w3.org/1999/xlink" xml:space="preserve" style="fill-rule:evenodd;clip-rule:evenodd;stroke-linejoin:round;stroke-miterlimit:1.41421;">
    <g transform="matrix(0.24,0,0,0.24,-317.951,-62.206)">
        <g transform="matrix(4.16667,0,0,4.16667,0,0)">
            <path d="M350.287,81.217C351.267,81.714 352.091,82.865 352.091,84.172C352.091,85.977 350.613,87.611 348.652,87.611C346.848,87.611 345.357,85.977 345.357,84.172C345.357,82.865 346.011,81.714 347.162,81.217L347.162,77.622L323.05,77.622L323.05,81.217C324.031,81.884 324.685,83.022 324.685,84.172C324.685,85.977 323.207,87.611 321.246,87.611C319.441,87.611 317.951,85.977 317.951,84.172C317.951,82.865 318.788,81.714 319.925,81.217L319.925,62.206L323.05,62.206L323.05,74.34L347.162,74.34L347.162,67.122L350.287,67.122L350.287,81.217ZM328.463,66.965C329.771,66.965 330.765,67.946 330.765,69.253C330.765,70.574 329.771,71.555 328.463,71.555C329.614,71.881 330.765,72.378 330.765,73.189L330.765,73.516L323.704,73.516L323.704,71.711C323.704,71.397 323.861,71.228 324.031,71.058C324.201,70.901 325.835,71.058 327.47,71.397C326.659,70.901 326.162,70.247 326.162,69.253C326.162,67.946 327.156,66.965 328.463,66.965ZM331.575,73.516L345.854,73.516C349.959,73.516 331.575,65.487 331.575,73.516Z" style="fill:rgb(242,106,33);"/>
        </g>
    </g>
</svg>
