<?xml version="1.0" encoding="UTF-8" standalone="no"?>
<!DOCTYPE svg PUBLIC "-//W3C//DTD SVG 1.1//EN" "http://www.w3.org/Graphics/SVG/1.1/DTD/svg11.dtd">
<svg width="100%" height="100%" viewBox="0 0 28 42" version="1.1" xmlns="http://www.w3.org/2000/svg" xmlns:xlink="http://www.w3.org/1999/xlink" xml:space="preserve" style="fill-rule:evenodd;clip-rule:evenodd;stroke-linejoin:round;stroke-miterlimit:1.41421;">
    <g transform="matrix(0.24,0,0,0.24,-711.098,-444.118)">
        <g transform="matrix(4.16667,0,0,4.16667,0,0)">
            <path d="M721.882,475.813C722.222,475.813 722.379,476.139 722.379,476.466C722.379,476.636 722.222,476.963 721.882,476.963C721.568,476.963 721.229,476.636 721.229,476.466C721.229,476.139 721.568,475.813 721.882,475.813ZM721.07,455.166C721.411,455.166 721.568,455.492 721.568,455.649C721.568,455.977 721.411,456.303 721.07,456.303C720.73,456.303 720.574,455.977 720.574,455.649C720.574,455.492 720.73,455.166 721.07,455.166ZM737.965,483.514L726.484,483.514C725.674,483.514 725.02,482.859 725.02,482.206L725.02,479.094C725.02,477.943 725.83,476.793 726.98,476.309C727.295,476.139 727.635,475.643 727.479,475.328L726.328,472.373C726.145,472.047 726.328,471.72 726.668,471.72L735.506,468.111C735.689,468.111 736.004,467.783 736.004,467.613C736.16,467.287 736.16,466.96 736.16,466.633C735.847,466.137 735.193,465.822 734.695,465.979L720.889,471.393C720.418,471.549 720.26,472.047 720.26,472.373L720.574,472.857C720.574,473.197 720.574,473.354 720.418,473.523C720.26,473.681 720.077,473.681 719.92,473.681C718.613,473.523 716.312,472.53 715.475,468.607C714.35,463.037 719.424,460.409 722.064,459.428C722.379,459.258 722.692,459.258 723.032,459.428C723.215,459.586 723.529,459.756 723.529,460.082L723.215,460.409C723.032,460.409 722.875,460.566 723.032,460.736C723.032,460.893 723.215,460.893 723.373,460.893L723.529,460.893L723.869,460.736C724.184,461.22 724.837,461.717 725.334,461.873L725.334,462.371C725.334,462.697 725.334,462.867 725.674,462.867C725.83,462.867 725.987,462.697 725.987,462.541L725.987,462.043C726.328,462.213 726.484,462.213 726.668,462.213C727.139,462.213 727.479,462.043 727.792,461.873L728.132,462.541C728.132,462.541 728.289,462.697 728.472,462.697L728.629,462.541C728.785,462.541 728.785,462.371 728.785,462.213L728.472,461.56C728.942,461.22 729.283,460.736 729.596,460.239L729.937,460.566L730.094,460.566C730.276,460.566 730.434,460.409 730.434,460.409C730.59,460.239 730.434,459.912 730.276,459.912L729.779,459.586C729.779,459.428 729.937,459.088 729.937,458.932C729.937,458.435 729.779,458.107 729.596,457.624L729.937,457.454C730.094,457.454 730.276,457.127 730.094,456.971C729.937,456.801 729.779,456.801 729.596,456.801L729.283,457.127C729.1,456.801 728.785,456.473 728.472,456.303C728.289,456.146 728.289,455.977 728.132,455.82L724.184,447.295C723.869,446.641 723.032,446.313 722.379,446.641C722.222,446.641 721.882,446.641 721.725,446.313L721.07,444.666C720.73,444.182 720.26,444.012 719.764,444.182C719.084,444.51 718.927,445.163 719.267,445.66L719.92,447.125C719.92,447.295 719.92,447.295 719.92,447.465C719.92,447.621 719.764,447.621 719.764,447.791C719.267,447.948 719.084,448.118 718.927,448.445C718.77,448.929 718.77,449.269 718.927,449.582L720.077,452.211C720.26,452.694 720.077,453.191 719.764,453.361C716.469,454.839 709.591,459.088 711.395,468.607C712.205,473.354 714.664,475.485 716.809,476.636C717.959,477.119 718.613,478.113 718.613,479.421L718.613,482.036C718.613,482.859 717.959,483.357 717.279,483.357L714.167,483.357C713.854,483.357 713.356,483.841 713.356,484.181L713.356,485.814L738.802,485.814L738.802,484.338C738.802,483.841 738.461,483.514 737.965,483.514Z" style="fill:rgb(192,31,50);fill-rule:nonzero;"/>
        </g>
    </g>
</svg>
