<?xml version="1.0" encoding="UTF-8" standalone="no"?>
<!DOCTYPE svg PUBLIC "-//W3C//DTD SVG 1.1//EN" "http://www.w3.org/Graphics/SVG/1.1/DTD/svg11.dtd">
<svg width="100%" height="100%" viewBox="0 0 36 40" version="1.1" xmlns="http://www.w3.org/2000/svg" xmlns:xlink="http://www.w3.org/1999/xlink" xml:space="preserve" style="fill-rule:evenodd;clip-rule:evenodd;stroke-linejoin:round;stroke-miterlimit:1.41421;">
    <g transform="matrix(1,0,0,1,-0.0378111,-2.12386)">
        <g transform="matrix(0.540777,0,0,-0.540777,-7.98335,44.524)">
            <path d="M58.629,5.998L58.633,35.188L50.104,35.938C49.821,35.932 49.539,35.957 49.264,36.013L49.285,36.011L49.282,36.025C47.843,36.467 47.016,37.15 46.52,38.119L43.165,44.653L43.148,6.345L34.822,6.345L34.822,30.376L33.697,30.376L33.697,6.345L25.38,6.345L25.386,44.654L22.03,38.119C21.036,36.182 18.721,35.386 16.856,36.343C14.994,37.298 14.29,39.646 15.283,41.582L21.862,54.407C21.977,54.627 22.107,54.832 22.251,55.021C22.844,56.737 24.475,57.971 26.392,57.971L42.157,57.971C44.075,57.971 45.705,56.736 46.298,55.021C46.442,54.832 46.573,54.627 46.685,54.407L53.014,42.074L72.584,42.074C74.007,42.074 75.218,41.158 75.658,39.884C75.765,39.743 75.862,39.592 75.945,39.428L80.832,29.907C81.569,28.47 81.047,26.727 79.663,26.018C78.279,25.308 76.559,25.898 75.823,27.336L73.332,32.187L73.319,5.998L66.388,5.998L66.388,21.588L65.553,21.588L65.553,5.998L58.629,5.998ZM59.514,51.421C59.514,54.635 62.124,57.244 65.339,57.244C68.553,57.244 71.163,54.635 71.163,51.421C71.163,48.207 68.553,45.596 65.339,45.596C62.124,45.596 59.514,48.207 59.514,51.421ZM26.573,70.561C26.573,74.891 30.088,78.406 34.418,78.406C38.748,78.406 42.264,74.891 42.264,70.561C42.264,66.231 38.748,62.716 34.418,62.716C30.088,62.716 26.573,66.231 26.573,70.561Z" style="fill:rgb(234,29,37);"/>
        </g>
    </g>
</svg>
