<?xml version="1.0" encoding="UTF-8" standalone="no"?>
<!DOCTYPE svg PUBLIC "-//W3C//DTD SVG 1.1//EN" "http://www.w3.org/Graphics/SVG/1.1/DTD/svg11.dtd">
<svg width="100%" height="100%" viewBox="0 0 37 42" version="1.1" xmlns="http://www.w3.org/2000/svg" xmlns:xlink="http://www.w3.org/1999/xlink" xml:space="preserve" style="fill-rule:evenodd;clip-rule:evenodd;stroke-linejoin:round;stroke-miterlimit:1.41421;">
    <g transform="matrix(1,0,0,1,-1.83465,-0.468357)">
        <g transform="matrix(0.672499,0,0,0.672499,-1.51962,-0.501387)">
            <path d="M58.376,47.538C57.544,45.7 55.831,44.32 54.149,43.068C52.233,41.632 50.09,40.467 48.243,39.52L47.754,39.265C47.019,38.885 46.278,38.499 45.524,38.147C45.512,38.141 45.499,38.135 45.49,38.131C44.705,37.767 43.905,37.439 43.082,37.19C42.942,37.137 42.805,37.084 42.665,37.028C42.656,37.04 42.649,37.053 42.64,37.065C41.765,38.408 40.874,39.685 39.971,40.921C38.37,43.123 36.728,45.192 35.074,47.257C34.055,48.528 33.028,49.796 32,51.091C30.972,49.795 29.947,48.527 28.929,47.257C27.272,45.189 25.63,43.117 24.026,40.912C23.123,39.678 22.235,38.405 21.363,37.065C21.354,37.053 21.347,37.04 21.338,37.028C21.201,37.081 21.061,37.137 20.924,37.19C20.102,37.436 19.298,37.766 18.513,38.131C18.501,38.134 18.491,38.14 18.479,38.147C17.725,38.499 16.981,38.885 16.249,39.265L15.76,39.52C13.91,40.467 11.77,41.632 9.851,43.068C8.169,44.32 6.459,45.7 5.627,47.538C4.895,49.161 4.964,51.08 5.02,52.927L5.042,53.503C5.051,53.796 5.061,54.188 5.061,54.559C5.052,55.596 5.834,56.067 6.597,56.524C6.703,56.583 6.812,56.642 6.908,56.711C7.867,57.309 8.886,57.923 9.951,58.402C13.362,59.919 17.296,60.984 22.302,61.775C24.003,62.04 25.588,62.236 27.171,62.364C28.747,62.501 30.242,62.557 31.759,62.557L32.248,62.557C33.762,62.557 35.26,62.501 36.833,62.364C38.418,62.236 40.001,62.04 41.705,61.775C46.711,60.984 50.642,59.919 54.056,58.402C55.121,57.922 56.14,57.309 57.096,56.711C57.196,56.642 57.302,56.583 57.411,56.524C58.174,56.066 58.956,55.596 58.947,54.559C58.947,54.188 58.956,53.796 58.966,53.503L58.985,52.927C59.039,51.08 59.108,49.161 58.376,47.538ZM53.383,51.201C53.383,51.631 53.031,51.983 52.601,51.983L42.166,51.983C41.736,51.983 41.384,51.631 41.384,51.201L41.384,49.31C41.384,48.88 41.736,48.528 42.166,48.528L52.601,48.528C53.031,48.528 53.383,48.88 53.383,49.31L53.383,51.201Z" style="fill:rgb(20,148,165);fill-rule:nonzero;"/>
        </g>
        <g transform="matrix(0.672499,0,0,0.672499,-1.51962,-0.501387)">
            <path d="M45.818,14.801C45.818,14.801 44.87,5.954 44.033,3.61C43.971,3.44 43.858,3.298 43.725,3.173C42.952,2.435 41.584,2.222 40.559,2.039C39.049,1.771 37.512,1.645 35.98,1.563C34.659,1.491 33.33,1.45 32,1.442C30.67,1.451 29.341,1.491 28.02,1.562C26.487,1.644 24.95,1.77 23.441,2.038C22.416,2.221 21.048,2.435 20.275,3.172C20.142,3.298 20.029,3.439 19.967,3.609C19.131,5.953 18.182,14.8 18.182,14.8C18.102,15.618 18.075,16.412 18.11,17.174C18.598,16.815 19.085,16.48 19.566,16.171L21.582,14.872L21.585,14.933C24.555,13.009 27.819,11.879 32.002,11.787C36.184,11.879 39.449,13.009 42.419,14.933L42.422,14.872L44.438,16.171C44.918,16.48 45.406,16.815 45.894,17.174C45.926,16.413 45.898,15.619 45.818,14.801Z" style="fill:rgb(20,148,165);fill-rule:nonzero;"/>
        </g>
        <g transform="matrix(0.672499,0,0,0.672499,-1.51962,-0.501387)">
            <path d="M46.547,20.288C46.546,20.275 46.546,20.264 46.544,20.252C46.522,20.237 46.496,20.221 46.471,20.204C45.396,19.537 44.37,18.788 43.31,18.096C43.194,20.174 43.022,22.24 42.486,24.269C42.45,24.412 42.41,24.552 42.37,24.692C42.318,24.871 42.263,25.049 42.206,25.227C41.096,25.213 38.398,25.226 37.603,25.226C37.533,24.755 37.485,24.326 37.405,23.903C37.173,22.674 36.456,21.935 35.218,21.658C33.726,21.324 33.356,21.161 31.866,21.165C30.376,21.161 29.866,21.324 28.374,21.658C27.137,21.934 26.419,22.674 26.187,23.903C26.107,24.326 26.058,24.755 25.989,25.226C25.148,25.226 22.742,25.211 21.756,25.23C21.717,25.113 21.679,24.996 21.641,24.88C20.953,22.76 20.711,20.572 20.711,18.35L20.711,18.344C20.708,18.212 20.703,18.075 20.697,17.941C19.96,18.438 19.239,18.983 18.528,19.574C18.118,19.913 17.715,20.303 17.424,20.742C17.406,21.151 17.411,21.56 17.456,21.963C17.631,23.534 18.128,24.999 19.101,26.267C19.633,26.961 20.054,27.076 20.836,26.787C20.846,26.787 21.997,29.827 22.118,30.103C23.179,32.554 25.253,35.232 27.851,36.14C30.828,37.181 34.576,37.138 37.3,35.417C39.82,33.825 41.113,31.334 42.202,28.686C42.202,28.686 42.728,27.74 42.959,27.242C43.054,27.039 43.06,26.843 43.279,26.805C43.451,26.777 43.703,26.924 43.899,26.91C44.334,26.879 44.642,26.573 44.895,26.244C45.869,24.975 46.365,23.512 46.54,21.939C46.603,21.394 46.591,20.835 46.547,20.288ZM28.987,34.929C25.695,33.822 23.851,30.725 22.6,27.575L26.009,27.575C26.166,28.791 26.188,28.695 26.217,29.587C26.259,30.914 26.259,30.914 27.579,31.17C27.601,31.174 27.623,31.176 27.644,31.18C29.374,31.487 30.13,31.582 31.866,31.552C33.603,31.583 34.218,31.487 35.949,31.18C35.97,31.176 35.992,31.174 36.014,31.17C36.382,31.106 36.996,31.067 37.222,30.714C37.328,30.549 37.34,30.325 37.353,30.136C37.359,30.057 37.463,27.574 37.584,27.574L41.315,27.574C40.769,28.82 40.13,30.027 39.441,31.199C37.312,34.828 32.954,36.264 28.987,34.929Z" style="fill:rgb(20,148,165);fill-rule:nonzero;"/>
        </g>
    </g>
</svg>
