<?xml version="1.0" encoding="UTF-8" standalone="no"?>
<!DOCTYPE svg PUBLIC "-//W3C//DTD SVG 1.1//EN" "http://www.w3.org/Graphics/SVG/1.1/DTD/svg11.dtd">
<svg width="100%" height="100%" viewBox="0 0 40 42" version="1.1" xmlns="http://www.w3.org/2000/svg" xmlns:xlink="http://www.w3.org/1999/xlink" xml:space="preserve" style="fill-rule:evenodd;clip-rule:evenodd;stroke-linejoin:round;stroke-miterlimit:1.41421;">
    <g transform="matrix(0.24,0,0,0.24,-315.179,-184.188)">
        <g transform="matrix(4.16667,0,0,4.16667,0,0)">
            <path d="M321.416,207.462C323.704,207.462 325.678,205.657 325.678,203.526C325.678,201.395 323.704,199.76 321.416,199.76C319.271,199.76 317.297,201.395 317.297,203.526C317.297,205.657 319.271,207.462 321.416,207.462ZM343.239,208.442C345.54,208.116 347.998,206.808 350.129,204.507C350.457,204.18 350.457,203.853 350.457,203.356C353.242,200.087 354.889,195.498 354.889,192.059C354.889,186.476 352.261,185.992 347.828,184.998C347.671,184.514 347.174,184.188 346.521,184.188C345.54,184.188 344.716,184.841 344.716,185.665C344.716,186.476 345.54,187.299 346.521,187.299C346.848,187.299 347.174,187.129 347.345,186.972L347.501,186.972C351.607,187.796 352.758,188.123 352.758,192.059C352.758,195.001 351.28,199.263 348.822,202.218C348.325,202.218 347.998,202.375 347.671,202.702C346.521,204.023 344.546,205.657 342.245,205.657C339.787,205.657 337.826,204.023 336.675,202.702C336.335,202.375 336.021,202.218 335.524,202.218C333.223,199.263 331.575,195.001 331.575,192.059C331.575,188.123 332.726,187.796 336.832,186.972C337.159,187.129 337.499,187.299 337.982,187.299C338.806,187.299 339.63,186.476 339.63,185.665C339.63,184.841 338.806,184.188 337.982,184.188C337.329,184.188 336.675,184.514 336.505,184.998C332.085,185.992 329.457,186.476 329.457,192.059C329.457,195.498 331.091,200.087 333.89,203.526C333.89,203.853 334.046,204.35 334.217,204.677C336.335,206.808 338.636,208.116 340.938,208.442L340.938,215.333C340.938,220.08 336.832,223.846 331.745,223.846C326.672,223.846 322.553,220.08 322.553,215.333L322.553,209.253C325.508,208.77 327.653,206.468 327.653,203.526C327.653,200.414 324.868,197.786 321.416,197.786C318.134,197.786 315.179,200.414 315.179,203.526C315.179,206.468 317.467,208.77 320.422,209.253L320.422,215.333C320.422,221.061 325.508,225.82 331.745,225.82C337.982,225.82 343.082,221.061 343.082,215.333L343.082,208.442L343.239,208.442Z" style="fill:rgb(135,38,108);"/>
        </g>
    </g>
</svg>
