<?xml version="1.0" encoding="UTF-8" standalone="no"?>
<!DOCTYPE svg PUBLIC "-//W3C//DTD SVG 1.1//EN" "http://www.w3.org/Graphics/SVG/1.1/DTD/svg11.dtd">
<svg width="100%" height="100%" viewBox="0 0 36 42" version="1.1" xmlns="http://www.w3.org/2000/svg" xmlns:xlink="http://www.w3.org/1999/xlink" xml:space="preserve" style="fill-rule:evenodd;clip-rule:evenodd;stroke-linejoin:round;stroke-miterlimit:1.41421;">
    <g transform="matrix(1,0,0,1,-0.429338,-0.489252)">
        <g transform="matrix(0.683869,0,0,0.683869,-3.60686,-0.801894)">
            <path d="M58.098,60.993C58.098,61.607 57.601,62.112 56.979,62.112L12.394,62.112C8.812,62.112 5.902,59.202 5.902,55.62L5.902,49.866C5.902,46.317 8.779,43.407 12.328,43.374L12.875,43.366L12.601,42.893C12.104,42.039 11.846,41.077 11.846,40.107L11.846,35.306C11.846,32.313 14.209,29.867 17.161,29.726L52.948,29.726L52.948,29.709L53.271,29.709C53.885,29.709 54.39,30.215 54.39,30.828C54.39,31.45 53.884,31.947 53.271,31.947L17.444,31.947C15.595,31.947 14.086,33.456 14.086,35.305L14.086,40.106C14.086,41.64 15.131,42.983 16.623,43.356L16.665,43.364L56.979,43.364C57.601,43.364 58.098,43.87 58.098,44.492C58.098,45.106 57.601,45.611 56.979,45.611L53.712,45.611L53.662,45.628C53.529,45.678 53.397,45.703 53.272,45.703L17.444,45.703C17.137,45.703 16.814,45.678 16.474,45.612L12.394,45.612C10.047,45.612 8.14,47.519 8.14,49.866L8.14,55.62C8.14,57.967 10.047,59.874 12.394,59.874L56.979,59.874C57.601,59.874 58.098,60.379 58.098,60.993Z" style="fill:rgb(192,31,50);fill-rule:nonzero;"/>
            <path d="M52.694,41.618L20.458,41.618C18.266,41.618 16.488,39.841 16.488,37.648C16.488,35.456 18.265,33.678 20.458,33.678L52.694,33.678L52.694,41.618Z" style="fill:rgb(192,31,50);fill-rule:nonzero;"/>
            <path d="M55.772,58.204L15.878,58.204C12.924,58.204 10.529,55.809 10.529,52.855C10.529,49.901 12.924,47.507 15.878,47.507L55.772,47.507L55.772,58.204Z" style="fill:rgb(192,31,50);fill-rule:nonzero;"/>
        </g>
        <g transform="matrix(1.53934,0,0,1.53934,-10.7971,-19.0654)">
            <path d="M20,21L29,17L20,13L11,17L12,17.44L12,27L13,27L13,17.89L20,21Z" style="fill:rgb(192,31,50);fill-rule:nonzero;"/>
        </g>
        <g transform="matrix(1.53934,0,0,1.53934,-10.7971,-19.0654)">
            <path d="M14,20L14,22L20,25L26,22L26,20L20,23L14,20Z" style="fill:rgb(192,31,50);fill-rule:nonzero;"/>
        </g>
    </g>
</svg>
