<?xml version="1.0" encoding="UTF-8" standalone="no"?>
<!DOCTYPE svg PUBLIC "-//W3C//DTD SVG 1.1//EN" "http://www.w3.org/Graphics/SVG/1.1/DTD/svg11.dtd">
<svg width="100%" height="100%" viewBox="0 0 42 42" version="1.1" xmlns="http://www.w3.org/2000/svg" xmlns:xlink="http://www.w3.org/1999/xlink" xml:space="preserve" style="fill-rule:evenodd;clip-rule:evenodd;stroke-linejoin:round;stroke-miterlimit:1.41421;">
    <g transform="matrix(0.24,0,0,0.24,-704.112,-314.221)">
        <g transform="matrix(4.16667,0,0,4.16667,0,0)">
            <path d="M710.741,336.466L723.373,349.253L719.449,353.189C715.998,356.628 710.271,356.628 706.818,353.189C703.21,349.593 703.21,344.01 706.818,340.415L710.741,336.466ZM739.299,333.354L726.51,320.736L730.434,316.8C734.042,313.361 739.639,313.361 743.247,316.8C746.699,320.252 746.699,325.979 743.247,329.588L739.299,333.354ZM741.6,351.555C740.945,352.039 739.952,352.039 739.455,351.555C738.802,350.901 738.802,349.907 739.455,349.423C739.952,348.77 740.945,348.77 741.6,349.423C742.097,349.907 742.097,350.901 741.6,351.555ZM737.834,346.468C737.18,345.985 737.18,344.991 737.834,344.337C738.305,343.683 739.299,343.683 739.952,344.337C740.449,344.991 740.449,345.985 739.952,346.468C739.299,346.965 738.305,346.965 737.834,346.468ZM736.029,341.395C735.533,340.898 735.533,339.917 736.029,339.25C736.684,338.767 737.65,338.767 738.148,339.25C738.802,339.917 738.802,340.898 738.148,341.395C737.65,342.049 736.684,342.049 736.029,341.395ZM736.5,349.75C736.029,350.404 735.035,350.404 734.382,349.75C733.885,349.253 733.885,348.273 734.382,347.789C735.035,347.122 736.029,347.122 736.5,347.789C737.18,348.273 737.18,349.253 736.5,349.75ZM732.734,344.834C732.238,344.18 732.238,343.2 732.734,342.703C733.231,342.049 734.225,342.049 734.879,342.703C735.375,343.2 735.375,344.18 734.879,344.834C734.225,345.331 733.231,345.331 732.734,344.834ZM731.427,348.116C730.93,348.77 729.937,348.77 729.439,348.116C728.813,347.619 728.813,346.638 729.439,345.985C729.937,345.488 730.93,345.488 731.427,345.985C732.08,346.638 732.08,347.619 731.427,348.116ZM721.751,341.068L718.796,338.113C716.338,335.655 716.338,331.392 718.796,328.934C721.411,326.306 725.674,326.306 728.132,328.934L731.087,331.719C733.729,334.347 733.729,338.44 731.087,341.068C728.472,343.683 724.366,343.683 721.751,341.068ZM715.188,327.3C714.508,326.646 714.508,325.652 715.188,325.168C715.684,324.501 716.651,324.501 717.305,325.168C717.803,325.652 717.803,326.646 717.305,327.3C716.651,327.783 715.684,327.783 715.188,327.3ZM713.539,322.213C712.886,321.56 712.886,320.736 713.539,320.082C714.036,319.585 715.004,319.585 715.684,320.082C716.154,320.736 716.154,321.56 715.684,322.213C715.004,322.867 714.036,322.867 713.539,322.213ZM713.879,330.568C713.383,331.222 712.389,331.222 711.734,330.568C711.238,329.915 711.238,329.091 711.734,328.437C712.389,327.954 713.383,327.954 713.879,328.437C714.508,329.091 714.508,329.915 713.879,330.568ZM710.088,325.495C709.591,324.999 709.591,324.018 710.088,323.364C710.741,322.867 711.552,322.867 712.232,323.364C712.886,324.018 712.886,324.999 712.232,325.495C711.552,326.149 710.741,326.149 710.088,325.495ZM708.439,320.579C707.786,319.912 707.786,318.931 708.439,318.447C709.094,317.793 709.931,317.793 710.584,318.447C711.081,318.931 711.081,319.912 710.584,320.579C709.931,321.063 709.094,321.063 708.439,320.579ZM718.456,321.716C719.109,321.232 720.104,321.232 720.6,321.716C721.254,322.383 721.254,323.364 720.6,323.848C720.104,324.501 719.109,324.501 718.456,323.848C717.959,323.364 717.959,322.383 718.456,321.716ZM719.449,316.8C715.998,313.361 710.271,313.361 706.818,316.8C703.21,320.252 703.21,325.979 706.818,329.588L730.434,353.189C734.042,356.628 739.639,356.628 743.247,353.189C746.699,349.593 746.699,344.01 743.247,340.415L719.449,316.8Z" style="fill:rgb(241,95,84);"/>
        </g>
    </g>
</svg>
